<?xml version="1.0" encoding="utf-8"?>
<!-- Generator: Adobe Illustrator 24.2.3, SVG Export Plug-In . SVG Version: 6.00 Build 0)  -->
<svg version="1.0" id="Layer_1" xmlns="http://www.w3.org/2000/svg" xmlns:xlink="http://www.w3.org/1999/xlink" x="0px" y="0px"
	 viewBox="0 0 100 100" style="enable-background:new 0 0 100 100;" xml:space="preserve">
<style type="text/css">
	.st0{fill:#AF016D;}
	.st1{fill:#FFFFFF;}
	.st2{font-family:'MyriadPro-Regular';}
	.st3{font-size:11.2576px;}
</style>
<path class="st0" d="M81.4,100H18.6C8.4,100,0,91.6,0,81.4V18.6C0,8.4,8.4,0,18.6,0h62.8C91.6,0,100,8.4,100,18.6v62.8
	C100,91.6,91.6,100,81.4,100z"/>
<path class="st1" d="M29,42.3c-2.9,0-5.4,0-8.2,0c-0.1-0.6-0.1-1.1-0.1-1.7c0-4.9,0.1-9.7,0-14.6c-0.2-8.5,8.7-12.6,15.2-9.2
	c0.6,0.3,1.6,0.2,2.3-0.1c5.4-2.5,11.8-0.5,14.2,4.7c0.4,0.8,0.5,1.6,0.7,2.4c0.1,0.5,0.1,1.1,0.1,1.6c0,5.5,0,11.1,0,16.7
	c-2.7,0-5.4,0-8.3,0c0-0.7,0-1.4,0-2.1c0-4.7,0-9.4,0-14.1c0-1.3-0.1-2.6-1.8-2.6c-1.7,0-2,1.2-2,2.7c0,4.7,0,9.4,0,14.1
	c0,0.7,0,1.3,0,2.1c-2.8,0-5.3,0-8.1,0c0-0.7-0.1-1.4-0.1-2.1c0-4.7,0-9.5-0.1-14.2c0-0.8-0.4-1.9-1-2.3C30.5,22.8,29,24,29,25.9
	c0,4.8,0,9.6,0,14.4C29,40.9,29,41.5,29,42.3z"/>
<path class="st1" d="M55.5,28.9c0.1-7.4,6.1-13.3,13.6-13.2c7.3,0.1,13.3,6.2,13.2,13.5c-0.1,7.4-6.3,13.3-13.7,13.2
	C61.3,42.3,55.4,36.2,55.5,28.9z M68.9,34.7c3.1,0,5.6-2.5,5.7-5.5c0.1-3.1-2.5-5.7-5.6-5.7c-3.2,0-5.7,2.5-5.6,5.7
	C63.3,32.2,65.8,34.7,68.9,34.7z"/>
<path class="st1" d="M28.7,73.3c-2.9,0-5.4,0-8.2,0c-0.1-0.6-0.1-1.1-0.1-1.7c0-4.9,0.1-9.7,0-14.6c-0.2-8.5,8.7-12.6,15.2-9.2
	c0.6,0.3,1.6,0.2,2.3-0.1c5.4-2.5,11.8-0.5,14.2,4.7c0.4,0.8,0.5,1.6,0.7,2.4c0.1,0.5,0.1,1.1,0.1,1.6c0,5.5,0,11.1,0,16.7
	c-2.7,0-5.4,0-8.3,0c0-0.7,0-1.4,0-2.1c0-4.7,0-9.4,0-14.1c0-1.3-0.1-2.6-1.8-2.6c-1.7,0-2,1.2-2,2.7c0,4.7,0,9.4,0,14.1
	c0,0.7,0,1.3,0,2.1c-2.8,0-5.3,0-8.1,0c0-0.7-0.1-1.4-0.1-2.1c0-4.7,0-9.5-0.1-14.2c0-0.8-0.4-1.9-1-2.3c-1.3-0.9-2.7,0.3-2.7,2.2
	c0,4.8,0,9.6,0,14.4C28.7,71.9,28.7,72.5,28.7,73.3z"/>
<path class="st1" d="M55.2,59.9c0.1-7.4,6.1-13.3,13.6-13.2c7.3,0.1,13.3,6.2,13.2,13.5c-0.1,7.4-6.3,13.3-13.7,13.2
	C61,73.3,55.1,67.3,55.2,59.9z M68.6,65.7c3.1,0,5.6-2.5,5.7-5.5c0.1-3.1-2.5-5.7-5.6-5.7c-3.2,0-5.7,2.5-5.6,5.7
	C63,63.2,65.5,65.7,68.6,65.7z"/>
<text transform="matrix(1 0 0 1 16.9175 88.333)" class="st1 st2 st3">mobile money</text>
</svg>
