<?xml version="1.0" encoding="UTF-8"?>
<svg xmlns="http://www.w3.org/2000/svg" xmlns:xlink="http://www.w3.org/1999/xlink" width="192pt" height="187.8pt" viewBox="0 0 192 187.8" version="1.1">
<defs>
<clipPath id="clip1">
  <path d="M 149 173 L 156 173 L 156 187.800781 L 149 187.800781 Z M 149 173 "/>
</clipPath>
</defs>
<g id="surface1">
<path style=" stroke:none;fill-rule:evenodd;fill:rgb(60.351563%,8.616638%,14.109802%);fill-opacity:1;" d="M 192.03125 12.320313 C 192.03125 5.382813 186.300781 -0.0546875 179.335938 -0.0546875 L 141.398438 -0.0625 L 18.433594 119.902344 L 18.425781 156.726563 C 18.421875 163.515625 23.996094 169.109375 31.117188 169.109375 L 68.4375 169.117188 L 192.023438 48.699219 Z M 192.03125 12.320313 "/>
<path style=" stroke:none;fill-rule:evenodd;fill:rgb(0%,49.021912%,18.431091%);fill-opacity:1;" d="M 31.15625 -0.0859375 C 24.035156 -0.0859375 18.457031 5.347656 18.457031 12.285156 L 18.433594 112.207031 L 133.65625 -0.0664063 Z M 31.15625 -0.0859375 "/>
<path style=" stroke:none;fill-rule:evenodd;fill:rgb(0%,49.021912%,18.431091%);fill-opacity:1;" d="M 76.171875 169.121094 L 179.300781 169.140625 C 186.265625 169.140625 191.996094 163.550781 192 156.761719 L 192.019531 56.246094 Z M 76.171875 169.121094 "/>
<path style=" stroke:none;fill-rule:evenodd;fill:rgb(100%,100%,100%);fill-opacity:1;" d="M 43.523438 71.609375 C 43.523438 73.421875 43.214844 74.929688 42.441406 75.839844 C 41.667969 76.890625 40.582031 77.34375 38.878906 77.34375 C 37.949219 77.34375 37.332031 77.039063 37.019531 76.4375 C 36.867188 76.136719 36.867188 75.683594 36.867188 75.078125 L 36.867188 65.570313 C 38.882813 65.570313 40.277344 65.726563 41.203125 66.324219 C 42.753906 67.230469 43.523438 69.046875 43.523438 71.609375 Z M 49.875 71.460938 C 49.71875 69.195313 48.792969 67.535156 46.933594 66.179688 C 45.851563 65.574219 44.765625 65.121094 43.375 64.816406 L 43.375 64.519531 C 44.613281 64.214844 45.851563 63.609375 46.933594 62.703125 C 48.023438 61.800781 48.640625 60.59375 48.640625 58.929688 C 48.640625 56.367188 47.242188 54.703125 44.460938 53.648438 C 43.066406 53.195313 41.207031 52.894531 39.042969 52.894531 L 27.738281 52.890625 L 27.738281 53.949219 C 28.816406 53.949219 29.59375 54.097656 29.902344 54.246094 C 30.679688 54.699219 30.988281 55.460938 30.988281 56.515625 L 30.984375 74.929688 C 30.984375 75.984375 30.675781 76.738281 29.898438 77.191406 C 29.433594 77.34375 28.8125 77.492188 27.730469 77.644531 L 27.730469 78.550781 L 39.5 78.554688 C 42.59375 78.554688 45.070313 77.949219 46.929688 76.59375 C 48.792969 75.234375 49.875 73.574219 49.875 71.460938 Z M 42.597656 59.234375 C 42.445313 61.195313 42.132813 62.550781 41.359375 63.308594 C 40.585938 64.0625 39.039063 64.363281 36.867188 64.363281 L 36.871094 55.914063 C 36.871094 55.15625 37.023438 54.703125 37.335938 54.402344 C 37.644531 54.253906 38.109375 54.101563 38.886719 54.101563 C 40.28125 54.101563 41.207031 54.550781 41.824219 55.609375 C 42.292969 56.515625 42.601563 57.722656 42.601563 59.234375 Z M 42.597656 59.234375 "/>
<path style=" stroke:none;fill-rule:evenodd;fill:rgb(100%,100%,100%);fill-opacity:1;" d="M 54.375 14.105469 C 53.910156 14.558594 53.445313 15.3125 52.980469 16.519531 L 43.84375 38.710938 L 42.757813 38.710938 L 32.390625 15.914063 C 32.082031 15.160156 31.617188 14.40625 31.152344 14.101563 C 30.6875 13.652344 30.070313 13.347656 29.136719 13.347656 L 29.136719 12.441406 L 42.609375 12.441406 L 42.609375 13.351563 C 41.214844 13.503906 40.289063 13.503906 39.824219 13.652344 C 39.359375 13.804688 39.207031 14.253906 39.207031 14.855469 L 39.207031 15.464844 L 39.359375 15.914063 L 45.390625 29.949219 L 45.699219 29.949219 L 50.96875 17.128906 L 51.277344 16.21875 C 51.433594 15.765625 51.589844 15.3125 51.589844 15.164063 C 51.589844 14.410156 51.28125 13.953125 50.816406 13.804688 C 50.351563 13.503906 49.421875 13.503906 48.03125 13.351563 L 48.03125 12.445313 L 56.703125 12.445313 L 56.703125 13.355469 C 55.613281 13.355469 54.996094 13.65625 54.375 14.105469 Z M 54.375 14.105469 "/>
<path style=" stroke:none;fill-rule:evenodd;fill:rgb(100%,100%,100%);fill-opacity:1;" d="M 183.632813 154.667969 C 180.996094 157.234375 177.28125 158.59375 172.640625 158.59375 L 159.785156 158.589844 L 159.785156 157.378906 C 160.40625 157.839844 161.023438 157.535156 161.644531 157.230469 C 162.417969 156.929688 163.039063 156.777344 163.503906 156.332031 L 163.507813 137.308594 C 163.507813 136.253906 162.730469 134.894531 161.960938 134.4375 C 161.492188 134.285156 160.71875 134.132813 159.792969 133.984375 L 159.792969 133.089844 L 172.179688 133.089844 C 177.132813 133.09375 181.003906 134.292969 183.636719 136.714844 C 186.109375 138.976563 187.195313 141.992188 187.351563 145.917969 C 187.351563 149.386719 186.109375 152.261719 183.632813 154.667969 Z M 178.371094 139.277344 C 176.667969 136.554688 175.117188 134.441406 171.558594 134.441406 C 170.628906 135.347656 169.234375 133.988281 169.234375 135.800781 L 169.234375 139.582031 L 169.230469 154.816406 C 169.230469 155.570313 169.230469 156.179688 169.847656 156.628906 C 170.316406 157.085938 170.625 157.085938 171.402344 157.085938 C 173.566406 156.929688 176.046875 156.335938 177.589844 154.511719 C 180.226563 151.503906 179.761719 149.6875 179.765625 146.363281 C 179.765625 143.503906 179.921875 141.6875 178.371094 139.277344 Z M 178.371094 139.277344 "/>
<path style=" stroke:none;fill-rule:evenodd;fill:rgb(100%,100%,100%);fill-opacity:1;" d="M 144.925781 158.589844 L 136.5625 146.804688 L 135.480469 146.804688 L 135.476563 154.207031 C 135.476563 155.5625 135.789063 156.476563 136.25 156.921875 C 136.710938 157.378906 137.644531 157.679688 139.039063 157.679688 L 139.039063 158.589844 L 125.566406 158.585938 L 125.566406 157.675781 C 126.808594 157.675781 127.738281 157.378906 128.199219 156.921875 C 128.816406 156.621094 128.972656 155.714844 128.972656 154.199219 L 128.976563 137.449219 C 128.976563 135.945313 128.820313 135.035156 128.203125 134.585938 C 127.742188 134.28125 126.8125 134.128906 125.570313 133.980469 L 125.570313 132.925781 L 138.425781 132.929688 C 141.054688 132.929688 143.222656 133.230469 144.929688 133.835938 C 148.023438 134.890625 149.726563 136.855469 149.726563 139.574219 C 149.726563 141.683594 148.796875 143.34375 147.25 144.402344 C 146.007813 145.308594 144.765625 145.90625 143.371094 146.210938 L 151.421875 156.925781 L 152.199219 157.53125 L 153.128906 157.839844 L 153.128906 158.589844 Z M 142.136719 136.402344 C 141.363281 135.039063 140.128906 134.28125 138.113281 134.28125 C 137.03125 134.28125 136.253906 134.433594 135.945313 134.734375 C 135.636719 134.886719 135.480469 135.339844 135.480469 135.945313 L 135.480469 145.605469 C 138.113281 145.460938 139.96875 145.152344 141.050781 144.550781 C 142.289063 143.792969 142.757813 142.285156 142.757813 140.019531 C 142.757813 138.511719 142.601563 137.304688 142.136719 136.402344 Z M 142.136719 136.402344 "/>
<path style=" stroke:none;fill-rule:evenodd;fill:rgb(100%,100%,100%);fill-opacity:1;" d="M 54.496094 140.910156 L 54.5 140.003906 C 55.734375 139.855469 56.667969 139.855469 57.132813 139.554688 C 57.441406 139.398438 57.753906 139.09375 57.753906 138.347656 C 57.753906 138.039063 57.601563 137.738281 57.441406 136.984375 C 57.289063 136.683594 57.136719 136.230469 56.824219 135.777344 L 55.894531 133.511719 L 46.757813 133.507813 C 46.136719 134.871094 45.828125 135.925781 45.671875 136.378906 C 45.210938 137.433594 45.054688 138.035156 45.054688 138.492188 C 45.054688 139.089844 45.515625 139.394531 46.292969 139.707031 C 46.753906 139.851563 47.375 139.851563 48.308594 140.003906 L 48.308594 140.910156 L 40.101563 140.90625 L 40.101563 140.003906 C 41.027344 139.851563 41.800781 139.394531 42.421875 138.644531 C 42.734375 138.1875 43.351563 137.132813 44.128906 135.472656 L 53.109375 114.800781 L 54.191406 114.800781 L 63.171875 134.722656 C 64.253906 136.988281 64.875 138.347656 65.496094 138.957031 C 65.960938 139.710938 66.730469 140.003906 67.660156 140.003906 L 67.660156 140.914063 Z M 51.40625 123.097656 L 51.097656 123.097656 L 47.378906 131.855469 L 55.277344 131.859375 Z M 51.40625 123.097656 "/>
<path style="fill-rule:evenodd;fill:rgb(100%,86.326599%,0%);fill-opacity:1;stroke-width:4;stroke-linecap:butt;stroke-linejoin:miter;stroke:rgb(60.351563%,8.616638%,13.719177%);stroke-opacity:1;stroke-miterlimit:4;" d="M 805.351563 204.054688 C 805.351563 204.054688 871.289063 229.875 932.539063 240.109375 C 955.3125 245.226563 1089.257813 275.851563 1082.304688 410.148438 C 1080.507813 444.835938 1027.226563 400.539063 1027.226563 400.539063 C 1027.226563 400.539063 921.367188 386.164063 877.304688 359.289063 C 855.234375 346.632813 805.976563 293.585938 805.351563 204.054688 Z M 805.351563 204.054688 " transform="matrix(0.1,0,0,-0.1,0,187.8)"/>
<path style="fill-rule:evenodd;fill:rgb(100%,86.326599%,0%);fill-opacity:1;stroke-width:4;stroke-linecap:butt;stroke-linejoin:miter;stroke:rgb(60.351563%,8.616638%,13.719177%);stroke-opacity:1;stroke-miterlimit:4;" d="M 1259.882813 634.289063 C 1259.882813 634.289063 1284.570313 481.828125 1160.703125 433.546875 C 1108.085938 412.414063 1029.101563 388.351563 1016.71875 376.242188 C 1016.71875 376.242188 988.828125 481.90625 1080.234375 545.304688 C 1109.648438 566.359375 1170.039063 586.046875 1208.75 599.601563 C 1245.9375 613.195313 1259.882813 634.289063 1259.882813 634.289063 Z M 1259.882813 634.289063 " transform="matrix(0.1,0,0,-0.1,0,187.8)"/>
<path style="fill-rule:evenodd;fill:rgb(100%,86.326599%,0%);fill-opacity:1;stroke-width:4;stroke-linecap:butt;stroke-linejoin:miter;stroke:rgb(60.351563%,8.616638%,13.719177%);stroke-opacity:1;stroke-miterlimit:4;" d="M 1323.90625 821.984375 C 1323.90625 821.984375 1401.328125 729.835938 1314.609375 624.210938 C 1295.976563 600.070313 1203.046875 541.242188 1179.84375 514.054688 C 1179.84375 514.054688 1133.4375 612.140625 1189.179688 692.140625 C 1204.648438 714.757813 1257.34375 757.0625 1280.546875 773.625 C 1303.789063 790.1875 1323.90625 821.984375 1323.90625 821.984375 Z M 1323.90625 821.984375 " transform="matrix(0.1,0,0,-0.1,0,187.8)"/>
<path style="fill-rule:evenodd;fill:rgb(100%,86.326599%,0%);fill-opacity:1;stroke-width:4;stroke-linecap:butt;stroke-linejoin:miter;stroke:rgb(60.351563%,8.616638%,13.719177%);stroke-opacity:1;stroke-miterlimit:4;" d="M 1229.882813 1022.726563 C 1229.882813 1022.726563 1157.226563 981.710938 1205.625 864.132813 C 1210.351563 850.617188 1266.40625 752.648438 1268.085938 725.460938 C 1268.085938 725.460938 1368.476563 786.164063 1327.773438 909.796875 C 1321.523438 932.414063 1274.882813 1004.71875 1229.882813 1022.726563 Z M 1229.882813 1022.726563 " transform="matrix(0.1,0,0,-0.1,0,187.8)"/>
<path style="fill-rule:evenodd;fill:rgb(100%,86.326599%,0%);fill-opacity:1;stroke-width:4;stroke-linecap:butt;stroke-linejoin:miter;stroke:rgb(60.351563%,8.616638%,13.719177%);stroke-opacity:1;stroke-miterlimit:4;" d="M 1045.078125 1182.84375 C 1045.078125 1182.84375 1020.273438 1108.898438 1079.101563 1039.484375 C 1103.90625 1010.773438 1215.390625 977.53125 1263.398438 942.804688 C 1263.398438 942.804688 1322.265625 1129.992188 1045.078125 1182.84375 Z M 1045.078125 1182.84375 " transform="matrix(0.1,0,0,-0.1,0,187.8)"/>
<path style="fill-rule:evenodd;fill:rgb(100%,86.326599%,0%);fill-opacity:1;stroke-width:4;stroke-linecap:butt;stroke-linejoin:miter;stroke:rgb(60.351563%,8.616638%,13.719177%);stroke-opacity:1;stroke-miterlimit:4;" d="M 890.507813 1315.695313 C 890.507813 1315.695313 1131.835938 1298.664063 1099.21875 1083.742188 C 1099.21875 1083.742188 1044.570313 1117.023438 1000.15625 1134.210938 C 980.976563 1143.78125 884.726563 1173.3125 890.507813 1261.28125 C 892.265625 1285.578125 890.507813 1315.695313 890.507813 1315.695313 Z M 890.507813 1315.695313 " transform="matrix(0.1,0,0,-0.1,0,187.8)"/>
<path style="fill-rule:evenodd;fill:rgb(100%,86.326599%,0%);fill-opacity:1;stroke-width:4;stroke-linecap:butt;stroke-linejoin:miter;stroke:rgb(60.351563%,8.616638%,13.719177%);stroke-opacity:1;stroke-miterlimit:4;" d="M 895.039063 1520.03125 C 895.039063 1520.03125 805.195313 1453.664063 850.078125 1341.984375 C 857.851563 1320.8125 904.257813 1260.460938 929.023438 1249.835938 C 929.023438 1249.835938 956.914063 1326.828125 973.945313 1382.6875 C 980.15625 1405.304688 997.226563 1494.328125 941.484375 1529.09375 C 912.070313 1545.695313 895.039063 1520.03125 895.039063 1520.03125 Z M 895.039063 1520.03125 " transform="matrix(0.1,0,0,-0.1,0,187.8)"/>
<path style="fill-rule:evenodd;fill:rgb(100%,86.326599%,0%);fill-opacity:1;stroke-width:4;stroke-linecap:butt;stroke-linejoin:miter;stroke:rgb(60.351563%,8.616638%,13.719177%);stroke-opacity:1;stroke-miterlimit:4;" d="M 876.40625 1453.898438 C 876.40625 1453.898438 806.796875 1653.15625 1056.054688 1707.414063 C 1056.054688 1707.414063 1111.757813 1630.421875 1020.429688 1550.460938 C 995.625 1527.804688 891.914063 1476.515625 876.40625 1453.898438 Z M 876.40625 1453.898438 " transform="matrix(0.1,0,0,-0.1,0,187.8)"/>
<path style="fill-rule:evenodd;fill:rgb(100%,86.326599%,0%);fill-opacity:1;stroke-width:4;stroke-linecap:butt;stroke-linejoin:miter;stroke:rgb(60.351563%,8.616638%,13.719177%);stroke-opacity:1;stroke-miterlimit:4;" d="M 1265 1858.703125 C 1265 1858.703125 1006.40625 1864.601563 1016.992188 1639.132813 C 1016.992188 1639.132813 1179.023438 1687.609375 1222.65625 1734.367188 C 1244.335938 1758.546875 1267.734375 1804.210938 1265 1858.703125 Z M 1265 1858.703125 " transform="matrix(0.1,0,0,-0.1,0,187.8)"/>
<path style=" stroke:none;fill-rule:evenodd;fill:rgb(0%,49.021912%,18.431091%);fill-opacity:1;" d="M 2.109375 8.355469 L 9.234375 5.488281 L 9.234375 5.339844 L 2.109375 5.339844 L 2.109375 3.976563 L 12.019531 3.980469 L 12.015625 5.644531 L 5.203125 8.355469 L 12.015625 8.355469 L 12.015625 9.863281 L 2.109375 9.863281 Z M 2.109375 8.355469 "/>
<path style=" stroke:none;fill-rule:evenodd;fill:rgb(0%,49.021912%,18.431091%);fill-opacity:1;" d="M 2.109375 16.964844 L 3.34375 16.808594 C 2.878906 16.351563 1.953125 15.902344 1.953125 14.546875 C 1.953125 12.882813 3.65625 11.222656 7.0625 11.222656 C 9.851563 11.222656 12.324219 12.433594 12.324219 14.847656 C 12.324219 16.964844 10.3125 17.867188 8.917969 17.867188 L 8.917969 16.355469 C 9.386719 16.355469 10.621094 15.90625 10.621094 14.847656 C 10.621094 13.796875 9.539063 12.886719 7.0625 12.886719 C 4.429688 12.882813 3.65625 13.789063 3.65625 14.84375 C 3.65625 15.148438 3.808594 16.355469 5.824219 16.65625 L 5.824219 14.996094 L 7.527344 14.996094 L 7.527344 17.867188 L 2.109375 17.863281 Z M 2.109375 16.964844 "/>
<path style=" stroke:none;fill-rule:evenodd;fill:rgb(0%,49.021912%,18.431091%);fill-opacity:1;" d="M 2.105469 24.203125 L 4.269531 23.753906 L 4.269531 21.1875 L 2.105469 20.734375 L 2.109375 19.070313 L 12.015625 21.636719 L 12.011719 23.296875 L 2.105469 25.863281 Z M 13.253906 22.996094 L 14.027344 22.546875 L 13.253906 21.941406 L 13.253906 21.035156 L 14.800781 21.941406 L 14.800781 22.996094 L 13.253906 23.902344 Z M 9.847656 22.546875 L 9.847656 22.394531 L 5.976563 21.636719 L 5.976563 23.449219 Z M 9.847656 22.546875 "/>
<path style=" stroke:none;fill-rule:evenodd;fill:rgb(0%,49.021912%,18.431091%);fill-opacity:1;" d="M 2.105469 31.449219 L 9.226563 28.425781 L 2.105469 28.425781 L 2.105469 27.070313 L 12.011719 27.074219 L 12.011719 28.585938 L 5.199219 31.449219 L 12.011719 31.449219 L 12.011719 32.808594 L 2.105469 32.808594 Z M 2.105469 31.449219 "/>
<path style=" stroke:none;fill-rule:evenodd;fill:rgb(0%,49.021912%,18.431091%);fill-opacity:1;" d="M 2.101563 42.164063 L 6.59375 42.164063 L 6.59375 39.449219 L 2.101563 39.445313 L 2.105469 37.9375 L 12.011719 37.9375 L 12.011719 39.449219 L 8.292969 39.449219 L 8.292969 42.164063 L 12.007813 42.164063 L 12.007813 43.675781 L 2.101563 43.671875 Z M 2.101563 42.164063 "/>
<path style=" stroke:none;fill-rule:evenodd;fill:rgb(0%,49.021912%,18.431091%);fill-opacity:1;" d="M 2.101563 50.164063 L 4.261719 49.714844 L 4.265625 47.144531 L 2.101563 46.6875 L 2.101563 45.03125 L 12.007813 47.601563 L 12.007813 49.410156 L 2.101563 51.824219 Z M 13.25 48.054688 L 14.796875 46.84375 L 14.792969 48.054688 L 13.25 48.808594 Z M 9.84375 48.503906 L 5.96875 47.597656 L 5.96875 49.410156 Z M 9.84375 48.503906 "/>
<path style=" stroke:none;fill-rule:evenodd;fill:rgb(0%,49.021912%,18.431091%);fill-opacity:1;" d="M 2.097656 57.558594 L 9.222656 54.539063 L 2.101563 54.539063 L 2.101563 53.179688 L 12.007813 53.183594 L 12.007813 54.691406 L 5.195313 57.558594 L 12.007813 57.558594 L 12.003906 58.921875 L 2.097656 58.921875 Z M 2.097656 57.558594 "/>
<path style=" stroke:none;fill-rule:evenodd;fill:rgb(0%,49.021912%,18.431091%);fill-opacity:1;" d="M 2.097656 66.164063 L 3.332031 66.011719 C 2.867188 65.558594 1.941406 65.105469 1.941406 63.746094 C 1.941406 62.089844 3.644531 60.578125 7.050781 60.578125 C 9.839844 60.578125 12.3125 61.636719 12.3125 64.050781 C 12.3125 66.164063 10.304688 67.070313 8.90625 67.070313 L 8.90625 65.5625 C 9.375 65.5625 10.613281 65.109375 10.613281 64.050781 C 10.613281 62.996094 9.53125 62.089844 7.050781 62.089844 C 4.417969 62.089844 3.644531 63.144531 3.644531 64.050781 C 3.644531 64.503906 3.796875 65.558594 5.8125 65.863281 L 5.8125 64.203125 L 7.515625 64.203125 L 7.515625 67.21875 L 2.097656 67.21875 Z M 2.097656 66.164063 "/>
<path style=" stroke:none;fill-rule:evenodd;fill:rgb(0%,49.021912%,18.431091%);fill-opacity:1;" d="M 2.09375 76.277344 L 9.21875 73.410156 L 9.21875 73.257813 L 2.097656 73.257813 L 2.097656 71.898438 L 12.003906 71.902344 L 12.003906 73.5625 L 5.191406 76.277344 L 12.003906 76.277344 L 12 77.785156 L 2.09375 77.785156 Z M 2.09375 76.277344 "/>
<path style=" stroke:none;fill-rule:evenodd;fill:rgb(0%,49.021912%,18.431091%);fill-opacity:1;" d="M 1.9375 82.613281 C 1.9375 81.714844 2.402344 79.144531 7.046875 79.144531 C 11.691406 79.144531 12.308594 81.714844 12.308594 82.617188 C 12.308594 83.519531 11.691406 86.089844 7.046875 86.089844 C 2.402344 86.089844 1.9375 83.519531 1.9375 82.613281 Z M 13.085938 83.222656 L 14.167969 82.617188 L 13.085938 82.011719 L 13.085938 81.105469 L 14.941406 82.015625 L 14.941406 83.222656 L 13.085938 84.128906 Z M 10.609375 82.617188 C 10.609375 81.863281 9.835938 80.652344 7.046875 80.652344 C 4.257813 80.652344 3.640625 81.863281 3.640625 82.613281 C 3.640625 83.367188 4.257813 84.578125 7.046875 84.578125 C 9.835938 84.578125 10.609375 83.371094 10.609375 82.617188 Z M 10.609375 82.617188 "/>
<path style=" stroke:none;fill-rule:evenodd;fill:rgb(0%,49.021912%,18.431091%);fill-opacity:1;" d="M 2.09375 91.667969 L 9.214844 88.804688 L 2.09375 88.804688 L 2.09375 87.445313 L 12 87.445313 L 12 88.960938 L 5.1875 91.820313 L 12 91.820313 L 12 93.183594 L 2.09375 93.179688 Z M 2.09375 91.667969 "/>
<path style=" stroke:none;fill-rule:evenodd;fill:rgb(0%,49.021912%,18.431091%);fill-opacity:1;" d="M 2.089844 100.273438 L 3.324219 100.128906 C 2.859375 99.671875 1.933594 99.214844 1.933594 97.855469 C 1.933594 96.195313 3.636719 94.535156 7.046875 94.539063 C 9.832031 94.539063 12.304688 95.746094 12.304688 98.160156 C 12.304688 100.277344 10.296875 101.179688 8.898438 101.179688 L 8.898438 99.671875 C 9.367188 99.671875 10.605469 99.21875 10.605469 98.160156 C 10.605469 97.105469 9.523438 96.199219 7.042969 96.195313 C 4.410156 96.195313 3.636719 97.105469 3.636719 98.160156 C 3.636719 98.464844 3.789063 99.671875 5.804688 99.96875 L 5.804688 98.308594 L 7.507813 98.3125 L 7.507813 101.179688 L 2.089844 101.179688 Z M 2.089844 100.273438 "/>
<path style=" stroke:none;fill-rule:evenodd;fill:rgb(0%,49.021912%,18.431091%);fill-opacity:1;" d="M 2.546875 108.445313 L 9.671875 105.425781 L 2.546875 105.425781 L 2.546875 104.0625 L 12.457031 104.066406 L 12.457031 105.582031 L 5.640625 108.445313 L 12.453125 108.449219 L 12.453125 109.804688 L 2.546875 109.804688 Z M 2.546875 108.445313 "/>
<path style=" stroke:none;fill-rule:evenodd;fill:rgb(0%,49.021912%,18.431091%);fill-opacity:1;" d="M 2.546875 116.746094 L 3.78125 116.589844 C 3.316406 116.289063 2.390625 115.691406 2.390625 114.480469 C 2.390625 112.667969 4.09375 111.164063 7.5 111.164063 C 10.289063 111.164063 12.761719 112.21875 12.761719 114.632813 C 12.761719 116.753906 10.753906 117.652344 9.355469 117.800781 L 9.355469 116.292969 C 9.824219 116.292969 11.058594 115.691406 11.058594 114.632813 C 11.0625 113.574219 9.980469 112.667969 7.5 112.667969 C 4.867188 112.667969 4.09375 113.726563 4.09375 114.785156 C 4.09375 115.089844 4.246094 116.144531 6.261719 116.445313 L 6.261719 114.785156 L 7.964844 114.785156 L 7.964844 117.800781 L 2.546875 117.800781 Z M 2.546875 116.746094 "/>
<path style=" stroke:none;fill-rule:evenodd;fill:rgb(0%,49.021912%,18.431091%);fill-opacity:1;" d="M 2.542969 123.535156 L 7.035156 123.539063 L 7.035156 120.667969 L 2.546875 120.667969 L 2.546875 119.160156 L 12.453125 119.160156 L 12.453125 120.671875 L 8.738281 120.667969 L 8.734375 123.539063 L 12.453125 123.539063 L 12.449219 124.898438 L 2.542969 124.894531 Z M 2.542969 123.535156 "/>
<path style=" stroke:none;fill-rule:evenodd;fill:rgb(0%,49.021912%,18.431091%);fill-opacity:1;" d="M 2.542969 126.402344 L 12.449219 126.40625 L 12.449219 127.914063 L 2.542969 127.914063 Z M 2.542969 126.402344 "/>
<path style=" stroke:none;fill-rule:evenodd;fill:rgb(0%,49.021912%,18.431091%);fill-opacity:1;" d="M 13.691406 132.59375 L 14.464844 131.996094 L 13.691406 131.542969 L 13.691406 130.636719 L 15.234375 131.542969 L 15.234375 132.59375 L 13.691406 133.496094 Z M 2.542969 129.574219 L 12.449219 129.582031 L 12.449219 134.710938 L 10.75 134.707031 L 10.75 130.933594 L 8.734375 130.933594 L 8.734375 134.402344 L 6.875 134.402344 L 6.875 130.933594 L 4.398438 130.933594 L 4.398438 134.855469 L 2.542969 134.855469 Z M 0.0625 131.386719 L 1.300781 131.386719 L 1.300781 132.753906 L 0.0625 132.753906 Z M 0.0625 131.386719 "/>
<path style=" stroke:none;fill-rule:evenodd;fill:rgb(0%,49.021912%,18.431091%);fill-opacity:1;" d="M 6.097656 139.683594 L 6.101563 137.878906 L 2.542969 137.871094 L 2.542969 136.519531 L 12.449219 136.519531 L 12.449219 139.6875 C 12.449219 141.046875 11.210938 141.949219 9.351563 141.949219 C 8.421875 141.949219 6.097656 141.496094 6.097656 139.683594 Z M 10.746094 139.085938 L 10.746094 137.878906 L 7.804688 137.878906 L 7.804688 139.386719 C 7.804688 140.4375 9.042969 140.4375 9.351563 140.4375 C 10.433594 140.4375 10.746094 139.992188 10.746094 139.085938 Z M 10.746094 139.085938 "/>
<path style=" stroke:none;fill-rule:evenodd;fill:rgb(0%,49.021912%,18.431091%);fill-opacity:1;" d="M 2.539063 149.34375 L 2.539063 147.988281 L 12.445313 145.574219 L 12.445313 147.230469 L 5.011719 148.742188 L 12.445313 150.253906 L 12.445313 151.765625 Z M 2.539063 149.34375 "/>
<path style=" stroke:none;fill-rule:evenodd;fill:rgb(0%,49.021912%,18.431091%);fill-opacity:1;" d="M 2.691406 157.496094 L 4.699219 156.890625 L 4.546875 154.324219 L 2.539063 153.867188 L 2.539063 152.367188 L 12.445313 154.476563 L 12.597656 156.289063 L 2.691406 159.007813 Z M 13.683594 154.925781 L 15.230469 153.722656 L 15.230469 154.929688 L 13.683594 155.6875 Z M 10.277344 155.378906 L 6.40625 154.628906 L 6.40625 156.441406 Z M 10.277344 155.378906 "/>
<path style=" stroke:none;fill-rule:evenodd;fill:rgb(0%,49.021912%,18.431091%);fill-opacity:1;" d="M 9.191406 167.160156 L 8.417969 165.648438 L 5.320313 167.160156 L 4.546875 165.796875 L 13.527344 161.570313 L 14.921875 164.441406 C 15.535156 165.652344 14.761719 167.007813 13.0625 167.761719 C 12.289063 168.214844 10.117188 168.820313 9.191406 167.160156 Z M 13.0625 164.742188 L 12.597656 163.683594 L 9.96875 164.894531 L 10.585938 166.101563 C 11.050781 167.160156 12.132813 166.558594 12.441406 166.40625 C 13.371094 165.957031 13.527344 165.496094 13.0625 164.742188 Z M 13.0625 164.742188 "/>
<path style=" stroke:none;fill-rule:evenodd;fill:rgb(0%,49.021912%,18.431091%);fill-opacity:1;" d="M 11.664063 176.214844 L 14.921875 173.347656 L 13.058594 171.382813 L 9.8125 174.253906 L 8.726563 173.195313 L 16.003906 166.710938 L 17.089844 167.761719 L 14.300781 170.175781 L 16.15625 172.289063 L 18.945313 169.878906 L 20.027344 170.929688 L 12.75 177.417969 Z M 11.664063 176.214844 "/>
<path style=" stroke:none;fill-rule:evenodd;fill:rgb(0%,49.021912%,18.431091%);fill-opacity:1;" d="M 19.410156 181.800781 L 20.027344 179.992188 L 17.703125 178.628906 L 16.3125 179.992188 L 14.917969 179.230469 L 22.195313 172.289063 L 23.742188 173.199219 L 20.800781 182.710938 Z M 23.898438 171.988281 L 23.28125 171.535156 L 24.675781 170.480469 L 25.757813 171.234375 Z M 21.730469 174.558594 L 18.945313 177.421875 L 20.644531 178.332031 Z M 21.730469 174.558594 "/>
<path style=" stroke:none;fill-rule:evenodd;fill:rgb(0%,49.021912%,18.431091%);fill-opacity:1;" d="M 28.542969 176.820313 L 26.53125 184.367188 L 24.984375 184.066406 L 27.152344 176.367188 L 24.984375 175.761719 L 25.445313 174.253906 L 31.175781 175.761719 L 30.710938 177.421875 Z M 28.542969 176.820313 "/>
<path style=" stroke:none;fill-rule:evenodd;fill:rgb(0%,49.021912%,18.431091%);fill-opacity:1;" d="M 37.523438 177.425781 L 37.519531 185.273438 L 36.128906 185.273438 L 36.128906 177.421875 L 33.808594 177.421875 L 33.808594 175.613281 L 39.847656 175.617188 L 39.847656 177.425781 L 37.523438 177.421875 Z M 37.523438 177.425781 "/>
<path style=" stroke:none;fill-rule:evenodd;fill:rgb(0%,49.021912%,18.431091%);fill-opacity:1;" d="M 45.730469 185.277344 C 45.574219 184.820313 45.574219 184.375 45.574219 183.316406 C 45.574219 182.105469 45.421875 181.507813 44.339844 181.507813 L 42.792969 181.507813 L 42.792969 185.277344 L 41.238281 185.277344 L 41.238281 175.617188 L 44.957031 175.617188 C 46.972656 175.617188 47.28125 177.582031 47.28125 178.332031 C 47.28125 179.390625 46.816406 180.296875 46.195313 180.75 C 46.660156 181.054688 47.121094 181.355469 47.121094 183.167969 C 47.121094 184.523438 47.121094 184.972656 47.433594 184.972656 L 47.433594 185.277344 Z M 44.648438 177.273438 L 42.792969 177.273438 L 42.792969 179.84375 L 44.492188 179.84375 C 45.265625 179.84375 45.730469 179.542969 45.730469 178.632813 C 45.730469 178.027344 45.574219 177.273438 44.648438 177.273438 Z M 44.648438 177.273438 "/>
<path style=" stroke:none;fill-rule:evenodd;fill:rgb(0%,49.021912%,18.431091%);fill-opacity:1;" d="M 48.824219 185.277344 L 50.375 185.277344 L 50.375 175.617188 L 48.824219 175.617188 Z M 48.824219 185.277344 "/>
<path style=" stroke:none;fill-rule:evenodd;fill:rgb(0%,49.021912%,18.431091%);fill-opacity:1;" d="M 57.1875 173.8125 L 56.414063 173.8125 C 57.03125 173.355469 57.1875 172.753906 57.1875 172.449219 C 57.1875 172.148438 57.035156 171.996094 56.882813 171.996094 C 56.726563 171.996094 56.414063 171.996094 56.261719 172.148438 L 56.109375 171.542969 C 56.570313 171.394531 56.726563 171.394531 57.035156 171.394531 C 57.652344 171.394531 57.964844 171.847656 57.964844 172.296875 C 57.964844 173.054688 57.652344 173.507813 57.1875 173.8125 Z M 55.640625 174.566406 L 56.570313 174.566406 L 55.640625 173.054688 L 54.558594 173.054688 L 53.785156 174.566406 L 54.558594 174.566406 L 55.179688 173.660156 Z M 52.390625 185.277344 L 52.390625 175.617188 L 57.808594 175.617188 L 57.808594 177.429688 L 53.9375 177.425781 L 53.9375 179.390625 L 57.496094 179.390625 L 57.496094 181.054688 L 53.9375 181.054688 L 53.9375 183.617188 L 57.960938 183.625 L 57.960938 185.277344 Z M 52.390625 185.277344 "/>
<path style=" stroke:none;fill-rule:evenodd;fill:rgb(0%,49.021912%,18.431091%);fill-opacity:1;" d="M 64.003906 185.28125 L 60.90625 178.484375 L 60.90625 185.28125 L 59.511719 185.277344 L 59.515625 175.621094 L 61.0625 175.621094 L 64.003906 182.414063 L 64.003906 175.621094 L 65.394531 175.621094 L 65.394531 185.28125 L 64 185.28125 Z M 64.003906 185.28125 "/>
<path style=" stroke:none;fill-rule:evenodd;fill:rgb(0%,49.021912%,18.431091%);fill-opacity:1;" d="M 75.148438 185.28125 L 72.054688 178.488281 L 72.054688 185.28125 L 70.660156 185.28125 L 70.664063 175.621094 L 72.210938 175.621094 L 75.148438 182.417969 L 75.152344 175.621094 L 76.542969 175.621094 L 76.542969 185.28125 Z M 75.148438 185.28125 "/>
<path style=" stroke:none;fill-rule:evenodd;fill:rgb(0%,49.021912%,18.431091%);fill-opacity:1;" d="M 82.425781 174.570313 L 81.808594 173.664063 L 81.191406 174.570313 L 80.261719 174.570313 L 81.191406 172.90625 L 82.425781 172.90625 L 83.359375 174.570313 Z M 81.804688 185.585938 C 80.878906 185.585938 78.242188 184.976563 78.246094 180.457031 C 78.246094 175.925781 80.882813 175.472656 81.808594 175.472656 C 82.738281 175.472656 85.367188 175.925781 85.367188 180.457031 C 85.367188 184.980469 82.734375 185.585938 81.804688 185.585938 Z M 81.808594 177.136719 C 81.035156 177.136719 79.792969 177.734375 79.792969 180.457031 C 79.792969 183.167969 81.03125 183.925781 81.804688 183.925781 C 82.582031 183.925781 83.820313 183.171875 83.820313 180.457031 C 83.820313 177.734375 82.585938 177.136719 81.808594 177.136719 Z M 81.808594 177.136719 "/>
<path style=" stroke:none;fill-rule:evenodd;fill:rgb(0%,49.021912%,18.431091%);fill-opacity:1;" d="M 91.410156 185.289063 L 88.46875 178.492188 L 88.464844 185.289063 L 86.917969 185.289063 L 86.921875 175.628906 L 88.621094 175.628906 L 91.410156 182.417969 L 91.5625 182.417969 L 91.5625 175.628906 L 92.957031 175.628906 L 92.953125 185.289063 Z M 91.410156 185.289063 "/>
<path style=" stroke:none;fill-rule:evenodd;fill:rgb(0%,49.021912%,18.431091%);fill-opacity:1;" d="M 100.234375 185.292969 L 100.078125 184.082031 C 99.765625 184.679688 99.148438 185.589844 97.910156 185.585938 C 96.050781 185.585938 94.503906 183.929688 94.503906 180.457031 C 94.503906 177.890625 95.59375 175.472656 98.066406 175.476563 C 100.238281 175.476563 101.164063 177.285156 101.316406 178.644531 L 99.769531 178.644531 C 99.769531 178.34375 99.148438 177.136719 98.222656 177.136719 C 97.140625 177.136719 96.054688 178.042969 96.054688 180.609375 C 96.050781 183.171875 97.136719 183.929688 98.21875 183.929688 C 98.53125 183.929688 99.613281 183.628906 99.921875 181.820313 L 98.222656 181.820313 L 98.222656 180.15625 L 101.316406 180.15625 L 101.316406 185.292969 Z M 100.234375 185.292969 "/>
<path style=" stroke:none;fill-rule:evenodd;fill:rgb(0%,49.021912%,18.431091%);fill-opacity:1;" d="M 109.371094 177.4375 L 109.367188 185.292969 L 107.816406 185.292969 L 107.820313 177.4375 L 105.65625 177.4375 L 105.65625 175.628906 L 111.535156 175.628906 L 111.535156 177.4375 Z M 109.371094 177.4375 "/>
<path style=" stroke:none;fill-rule:evenodd;fill:rgb(0%,49.021912%,18.431091%);fill-opacity:1;" d="M 117.109375 185.292969 L 117.109375 181.066406 L 114.324219 181.066406 L 114.324219 185.292969 L 112.777344 185.292969 L 112.777344 175.628906 L 114.324219 175.628906 L 114.324219 179.402344 L 117.109375 179.40625 L 117.109375 175.632813 L 118.660156 175.632813 L 118.660156 185.292969 Z M 117.109375 185.292969 "/>
<path style=" stroke:none;fill-rule:evenodd;fill:rgb(0%,49.021912%,18.431091%);fill-opacity:1;" d="M 123.765625 185.59375 C 122.683594 185.59375 120.207031 184.988281 120.207031 180.460938 C 120.207031 175.933594 122.6875 175.480469 123.765625 175.480469 C 124.699219 175.480469 127.171875 175.933594 127.171875 180.464844 C 127.171875 184.988281 124.699219 185.59375 123.765625 185.59375 Z M 124.234375 174.582031 L 123.765625 173.671875 L 123.152344 174.582031 L 122.070313 174.582031 L 123.152344 172.917969 L 124.234375 172.917969 L 125.320313 174.585938 Z M 123.765625 177.144531 C 122.839844 177.144531 121.757813 177.742188 121.757813 180.460938 C 121.757813 183.179688 122.839844 183.933594 123.765625 183.933594 C 124.542969 183.933594 125.625 183.179688 125.625 180.464844 C 125.625 177.742188 124.546875 177.144531 123.765625 177.144531 Z M 123.765625 177.144531 "/>
<path style=" stroke:none;fill-rule:evenodd;fill:rgb(0%,49.021912%,18.431091%);fill-opacity:1;" d="M 133.058594 185.292969 L 130.121094 178.5 L 130.117188 185.292969 L 128.566406 185.292969 L 128.566406 175.632813 L 130.273438 175.632813 L 133.210938 182.425781 L 133.210938 175.632813 L 134.609375 175.636719 L 134.609375 185.292969 Z M 133.058594 185.292969 "/>
<path style=" stroke:none;fill-rule:evenodd;fill:rgb(0%,49.021912%,18.431091%);fill-opacity:1;" d="M 142.8125 185.296875 L 141.265625 185.296875 L 138.949219 175.636719 L 140.496094 175.636719 L 142.039063 183.039063 L 143.742188 175.636719 L 145.289063 175.636719 Z M 142.8125 185.296875 "/>
<path style=" stroke:none;fill-rule:evenodd;fill:rgb(0%,49.021912%,18.431091%);fill-opacity:1;" d="M 146.375 185.296875 L 147.921875 185.296875 L 147.921875 175.636719 L 146.375 175.636719 Z M 146.375 185.296875 "/>
<g clip-path="url(#clip1)" clip-rule="nonzero">
<path style=" stroke:none;fill-rule:evenodd;fill:rgb(0%,49.021912%,18.431091%);fill-opacity:1;" d="M 152.726563 174.589844 L 152.261719 173.679688 L 151.640625 174.589844 L 150.867188 174.589844 L 151.640625 173.074219 L 152.726563 173.074219 L 153.65625 174.589844 Z M 149.628906 185.296875 L 149.628906 175.636719 L 154.894531 175.640625 L 154.890625 177.453125 L 151.023438 177.445313 L 151.023438 179.414063 L 154.738281 179.414063 L 154.738281 181.074219 L 151.023438 181.074219 L 151.023438 183.636719 L 155.207031 183.640625 L 155.207031 185.296875 Z M 151.484375 186.507813 L 152.878906 186.507813 L 152.878906 187.710938 L 151.484375 187.710938 Z M 151.484375 186.507813 "/>
</g>
<path style=" stroke:none;fill-rule:evenodd;fill:rgb(0%,49.021912%,18.431091%);fill-opacity:1;" d="M 159.695313 177.453125 L 159.691406 185.300781 L 158.144531 185.300781 L 158.144531 177.453125 L 155.976563 177.453125 L 155.976563 175.640625 L 161.859375 175.640625 L 161.859375 177.453125 Z M 159.695313 177.453125 "/>
<path style=" stroke:none;fill-rule:evenodd;fill:rgb(0%,49.021912%,18.431091%);fill-opacity:1;" d="M 170.371094 185.300781 L 167.433594 178.507813 L 167.28125 178.507813 L 167.277344 185.300781 L 165.882813 185.300781 L 165.886719 175.640625 L 167.59375 175.640625 L 170.371094 182.433594 L 170.375 175.640625 L 171.921875 175.644531 L 171.921875 185.300781 Z M 170.371094 185.300781 "/>
<path style=" stroke:none;fill-rule:evenodd;fill:rgb(0%,49.021912%,18.431091%);fill-opacity:1;" d="M 178.425781 185.304688 L 177.964844 183.34375 L 175.175781 183.339844 L 174.710938 185.304688 L 173.164063 185.300781 L 175.640625 175.644531 L 177.496094 175.644531 L 179.976563 185.304688 Z M 176.570313 177.90625 L 175.640625 181.683594 L 177.496094 181.683594 Z M 176.570313 177.90625 "/>
<path style=" stroke:none;fill-rule:evenodd;fill:rgb(0%,49.021912%,18.431091%);fill-opacity:1;" d="M 186.941406 185.304688 L 186.945313 177.300781 L 185.546875 185.304688 L 184 185.304688 L 182.761719 177.300781 L 182.609375 177.300781 L 182.609375 185.304688 L 181.214844 185.304688 L 181.214844 175.644531 L 183.542969 175.644531 L 184.773438 183.34375 L 186.167969 175.644531 L 188.339844 175.644531 L 188.335938 185.304688 Z M 186.941406 185.304688 "/>
</g>
</svg>
