<svg xmlns="http://www.w3.org/2000/svg" viewBox="0 0 413.42 62.57"><title>sacombank-logo</title><path d="M97.89,229c-3.83-2.85-8.92-4.24-15.41-4.24-1.4,0-2.66.07-3.84.15s-2.36.24-3.46.38A36.19,36.19,0,0,0,68.91,227a26.19,26.19,0,0,0-9.58,6.51,19.3,19.3,0,0,0-4.43,9.19s-.21.92-.36,2a17.63,17.63,0,0,0-.08,2.36q0,6.83,4.88,10.2c3.25,2.24,7.81,4.1,13.64,5.57a76.33,76.33,0,0,1,8,2.77,3.6,3.6,0,0,1,1.92,3v1c-.67,2.7-3.33,4.11-7.9,4.11a9.54,9.54,0,0,1-5.31-1.55,5.43,5.43,0,0,1-2.44-4.79H49.51a7.37,7.37,0,0,0-.22,2.23,15.46,15.46,0,0,0,5.46,12.15c4.06,3.69,9.58,5.57,16.6,5.57a37.61,37.61,0,0,0,19.32-4.87c5.6-3.17,9.06-8.35,10.39-15.48l.22-3.48A11.54,11.54,0,0,0,97,254.18c-2.88-2.32-6.94-4.18-12.11-5.49l-6-1.61a15.47,15.47,0,0,1-4.86-2.17,3.41,3.41,0,0,1-1.34-2.63l.08-.7c.44-2.09,2.51-3.17,6.12-3.17,4.57,0,6.94,1.54,6.94,4.79v.32h17.61v-1c0-6.1-1.84-10.67-5.6-13.55" transform="translate(-49.29 -224.71)" style="fill:#0057a0"/><path d="M222.45,257.23A24.12,24.12,0,0,0,208,254.3a23.57,23.57,0,0,0-11.08,4c-4.07,2.79-6.65,7-7.76,12.65l-.15,1.61-.22,1.88c0,4.19,1.55,7.4,4.66,9.58a20.05,20.05,0,0,0,11.74,3.27c1,0,2-.07,2.81-.14a8.26,8.26,0,0,0,1.54-.27,29.82,29.82,0,0,0,3-.7c.74-.21,1.47-.49,2.21-.78a31.49,31.49,0,0,0,4.29-2.23,20.06,20.06,0,0,0,3.62-3.27,19.74,19.74,0,0,0,4.29-9.73l.29-3.21c0-4.46-1.63-7.68-4.87-9.71m-10.28,18.24a5.82,5.82,0,0,1-4.14,3.22,5,5,0,0,1-1.48.14c-2.94,0-4.43-1.74-4.43-5.25a30.52,30.52,0,0,1,2.14-8,5.83,5.83,0,0,1,3.77-3,8.14,8.14,0,0,1,1.85-.21c2.73,0,4.13,1.89,4.13,5.67a15.34,15.34,0,0,1-1.84,7.39" transform="translate(-49.29 -224.71)" style="fill:#0057a0"/><path d="M139.17,256.12c-2.07-1.32-5.69-2-10.85-2h-1c-1.92,0-3.62.07-5.25.22q-13,1.34-14.63,10.27h12.7a4.07,4.07,0,0,1,1.93-2.31,6.4,6.4,0,0,1,3.26-.76c2.57,0,3.83.76,3.83,2.23,0,1-.66,1.75-2.07,2.3a25.94,25.94,0,0,1-5,1c-.45.07-.89.15-1.4.21l-4.87.7-3.34.63a16.69,16.69,0,0,0-5.76,2.71,10.6,10.6,0,0,0-3.69,6.28c0,.14-.18.78-.2,1.23s0,.59,0,1a5.67,5.67,0,0,0,2.44,5,13.06,13.06,0,0,0,7.53,2.37h.67a21,21,0,0,0,8.65-1.81,25.74,25.74,0,0,0,4.28-2.58v4.23h13.52l.15-1.37a4.29,4.29,0,0,1-1.41-2.37l.37-2.1L141.9,266a26.85,26.85,0,0,0,.38-3.85,6.73,6.73,0,0,0-3.11-6.08m-13.8,21.74a7.65,7.65,0,0,1-2.22,1.74,4.94,4.94,0,0,1-1,.36,6,6,0,0,1-1.93.29c-2.36,0-3.59-.93-3.54-2.38a3.28,3.28,0,0,1,2-2.91,24.17,24.17,0,0,1,4.37-1.34,37.89,37.89,0,0,0,4.57-1.15,11.08,11.08,0,0,1-2.2,5.4" transform="translate(-49.29 -224.71)" style="fill:#0057a0"/><path d="M371,256.12c-2.07-1.32-5.69-2-10.85-2h-1c-1.92,0-3.62.07-5.24.22q-13,1.34-14.64,10.27H352a4.09,4.09,0,0,1,1.94-2.31,6.33,6.33,0,0,1,3.24-.76c2.57,0,3.84.76,3.84,2.23,0,1-.66,1.75-2.07,2.3a26.12,26.12,0,0,1-5,1c-.46.07-.9.15-1.41.21l-4.88.7-3.33.63a16.62,16.62,0,0,0-5.76,2.71,10.58,10.58,0,0,0-3.69,6.28c0,.14-.19.78-.21,1.23s0,.59,0,1a5.67,5.67,0,0,0,2.44,5,13.08,13.08,0,0,0,7.53,2.37h.68a21.05,21.05,0,0,0,8.65-1.81,25.93,25.93,0,0,0,4.27-2.58v4.23H371.7l.15-1.37a4.31,4.31,0,0,1-1.41-2.37l.37-2.1L373.68,266a27.67,27.67,0,0,0,.38-3.85,6.73,6.73,0,0,0-3.11-6.08m-13.8,21.74a7.7,7.7,0,0,1-2.22,1.74,5.12,5.12,0,0,1-1,.36,6.08,6.08,0,0,1-1.94.29c-2.36,0-3.59-.93-3.53-2.38a3.29,3.29,0,0,1,2-2.91,24.31,24.31,0,0,1,4.37-1.34,37.7,37.7,0,0,0,4.58-1.15,11.06,11.06,0,0,1-2.2,5.4" transform="translate(-49.29 -224.71)" style="fill:#0057a0"/><path d="M181.06,257.45c-3-2.24-6.94-3.29-12-3.29-6.44,0-11.53,1.61-15.3,4.89a20.88,20.88,0,0,0-7,12s-.15.87-.24,1.67-.11,1.57-.11,1.57a12,12,0,0,0,4.13,9.23c2.81,2.45,6.87,3.63,12.19,3.63A25.74,25.74,0,0,0,176,283.85a15.57,15.57,0,0,0,7.38-9.64H170.28c-1.26,3.07-3.18,4.62-5.85,4.62-3.16,0-4.8-1.68-4.8-5.11a27.19,27.19,0,0,1,2.14-8.09,5.82,5.82,0,0,1,5.61-3.22,3.66,3.66,0,0,1,3,1.19,3.59,3.59,0,0,1,1,2.58l-.06.76h13.28l.09-1.74a9.56,9.56,0,0,0-3.56-7.75" transform="translate(-49.29 -224.71)" style="fill:#0057a0"/><path d="M413.82,256.4c-1.92-1.51-4.52-2.24-7.83-2.24-4.5,0-8.65,2-12.34,6l1.06-6h-12l-5.93,33.13h13.21l3-16.5c.6-2.65,1.33-4.38,2.3-5.25a5.51,5.51,0,0,1,4-1.29c2.44,0,3.7,1.23,3.7,3.82v1.08l-.08,1-3.09,17.14h13.08l3.54-19.44a18.36,18.36,0,0,0,.37-3.89c0-3.54-1-6.05-2.88-7.56" transform="translate(-49.29 -224.71)" style="fill:#0057a0"/><polygon points="413.42 29.34 398.07 29.34 387.85 39.01 393.08 10.28 379.93 10.28 370.49 62.45 383.62 62.45 385.54 52.32 388.38 49.87 393.29 62.44 409.03 62.44 398.97 41.62 413.42 29.34" style="fill:#0057a0"/><path d="M287.76,256.24c-1.69-1.43-4.35-2.08-7.75-2.08-4.81,0-9,1.95-12.64,5.88-1.18-3.94-4.36-5.88-9.61-5.88h-.3a13.3,13.3,0,0,0-6.13,1.66,17.16,17.16,0,0,0-5.17,3.95l1-5.7h-12l-5.93,33.1h13.09l3-16.44a11.13,11.13,0,0,1,2.21-5,5.11,5.11,0,0,1,3.7-1.52c2.29,0,3.4,1.15,3.4,3.44l-.23,2.8-3,16.72h13.15l3-16.44c.51-2.85,1.32-4.65,2.35-5.44a5.82,5.82,0,0,1,3.41-1.08,3.85,3.85,0,0,1,2.81.8,3.52,3.52,0,0,1,.8,2.58,20.23,20.23,0,0,1-.37,3.14l-3,16.44h13.16L290,267.94a26.69,26.69,0,0,0,.38-4.59c0-3.31-.88-5.66-2.66-7.11" transform="translate(-49.29 -224.71)" style="fill:#0057a0"/><path d="M321.23,254.16a16.27,16.27,0,0,0-5.54.84c-.65.36-1.33.7-2,1.12a21.52,21.52,0,0,0-2.89,2.1L315,235H301.8l-9.39,52.25h11.83l1-5.31c1.32,3.42,4.13,5.18,8.49,5.38h.66a16.31,16.31,0,0,0,13.3-6.28,22,22,0,0,0,5.11-14.4c0-3.91-1.12-7-3.41-9.14a11,11,0,0,0-8.12-3.29m-3.7,21.1a6.3,6.3,0,0,1-3.83,2.87,9.2,9.2,0,0,1-1.33.14c-3,0-4.44-1.82-4.44-5.39a23.84,23.84,0,0,1,2.29-6.77,4.8,4.8,0,0,1,3.47-2.3,9.56,9.56,0,0,1,1.48-.14c2.88,0,4.28,1.75,4.28,5.24a11.55,11.55,0,0,1-1.93,6.35" transform="translate(-49.29 -224.71)" style="fill:#0057a0"/></svg>