<?xml version="1.0" encoding="iso-8859-1"?>
<!-- Generator: Adobe Illustrator 19.0.0, SVG Export Plug-In . SVG Version: 6.00 Build 0)  -->
<svg version="1.1" id="Capa_1" xmlns="http://www.w3.org/2000/svg" xmlns:xlink="http://www.w3.org/1999/xlink" x="0px" y="0px"
	 viewBox="0 0 512 512" style="enable-background:new 0 0 512 512;" xml:space="preserve">
<circle style="fill:#B0E1FF;" cx="256" cy="256" r="256"/>
<path style="fill:#85C5ED;" d="M403.128,124.637c-12.959-17.805-33.951-29.388-57.657-29.388H166.53
	c-39.368,0-71.281,31.913-71.281,71.281v178.941c0,20.313,8.511,38.626,22.144,51.611l0,0l113.136,113.66
	C238.908,511.569,247.403,512,256,512c141.385,0,256-114.615,256-256c0-7.953-0.382-15.815-1.091-23.583L403.128,124.637z"/>
<path style="fill:#41A0D7;" d="M345.47,416.751H166.53c-39.368,0-71.281-31.913-71.281-71.281V166.53
	c0-39.368,31.913-71.281,71.281-71.281h178.941c39.368,0,71.281,31.913,71.281,71.281v178.941
	C416.751,384.838,384.838,416.751,345.47,416.751z"/>
<path style="fill:#FFFFFF;" d="M362.715,192.073c-6.564,3.282-20.002,3.611-20.002,3.611c14.787-10.831,14.423-21.334,14.423-21.334
	c-10.658,7.338-20.106,9.467-26.613,9.854c-7.961-8.293-19.149-13.465-31.553-13.465c-24.159,0-43.743,19.584-43.743,43.743
	c0,3.31,0.38,6.53,1.077,9.631c-4.726-0.101-9.074-0.559-12.68-1.1c0.012-0.021,0.027-0.04,0.038-0.061
	c-21.819-3.344-50.561-13.897-76.05-43.224c-3.458,6.261-5.432,13.457-5.432,21.115c0,15.457,8.026,29.032,20.128,36.813
	c-6.742-0.904-13.782-2.362-21.113-4.508c0.472,7.137,2.698,14.259,6.834,20.704c7.895,12.3,20.919,19.307,34.478,20.043
	c-7.843,1.264-16.3,1.908-25.411,1.719c2.316,6.767,6.322,13.062,11.997,18.206c8.983,8.143,20.425,11.855,31.647,11.272
	c-18.806,11.578-40.947,18.263-64.652,18.263c-0.325,0-0.647-0.01-0.972-0.013c18.686,11.369,40.627,17.918,64.098,17.918
	c65.2,0,123.829-51.359,123.492-126.94C356.889,203.985,362.715,192.073,362.715,192.073z"/>
<g>
</g>
<g>
</g>
<g>
</g>
<g>
</g>
<g>
</g>
<g>
</g>
<g>
</g>
<g>
</g>
<g>
</g>
<g>
</g>
<g>
</g>
<g>
</g>
<g>
</g>
<g>
</g>
<g>
</g>
</svg>
